<?xml version="1.0" standalone="no"?><!DOCTYPE svg PUBLIC "-//W3C//DTD SVG 1.1//EN" "http://www.w3.org/Graphics/SVG/1.1/DTD/svg11.dtd"><svg t="1746371590802" class="icon" viewBox="0 0 1024 1024" version="1.1" xmlns="http://www.w3.org/2000/svg" p-id="12552" xmlns:xlink="http://www.w3.org/1999/xlink" width="200" height="200"><path d="M872.6016 391.2704h-112.64V326.9632a248.4736 248.4736 0 1 0-496.9472 0v64.3072h-112.64a30.72 30.72 0 0 0-30.72 30.72v486.912a30.72 30.72 0 0 0 30.72 30.72h722.2272a30.72 30.72 0 0 0 30.72-30.72v-486.912a30.72 30.72 0 0 0-30.72-30.72zM324.4544 326.9632a187.0336 187.0336 0 1 1 374.0672 0v63.8976H324.4544z m517.4272 551.2192H181.0944v-425.472h660.7872z" fill="#3A3D3F" p-id="12553"></path><path d="M481.9456 715.8784v106.3936h61.44V716.8a102.7072 102.7072 0 1 0-61.44-1.1264z m32.5632-138.752a41.3696 41.3696 0 1 1-41.3184 41.3184 41.3696 41.3696 0 0 1 41.3184-41.3184z" fill="#3A3D3F" p-id="12554"></path></svg>