<?xml version="1.0" standalone="no"?><!DOCTYPE svg PUBLIC "-//W3C//DTD SVG 1.1//EN" "http://www.w3.org/Graphics/SVG/1.1/DTD/svg11.dtd"><svg t="1746432811746" class="icon" viewBox="0 0 1024 1024" version="1.1" xmlns="http://www.w3.org/2000/svg" p-id="5501" xmlns:xlink="http://www.w3.org/1999/xlink" width="200" height="200"><path d="M1018.39872 304.44544v691.2a28.61056 28.61056 0 0 1-28.57984 28.35456H110.26432c-4.61824 0-9.216-4.56704-9.216-10.05568v-36.608c0-5.48864 3.6864-10.05568 9.216-10.05568H952.9344a7.23968 7.23968 0 0 0 7.3728-7.31136V338.2784c0-3.66592-3.6864-6.4-6.4512-6.4H727.97184A28.61056 28.61056 0 0 1 699.392 303.53408V62.16704c0-2.74432-3.6864-5.48864-6.4512-5.48864H163.7376a7.23968 7.23968 0 0 0-7.3728 7.31136v340.11136a9.216 9.216 0 0 1-9.216 9.14432h-37.80608a9.216 9.216 0 0 1-9.216-9.14432V28.34432A28.61056 28.61056 0 0 1 128.70656 0h597.43232C745.472 0 763.904 8.192 777.76896 21.94432l221.26592 234.9568c11.9808 12.8 18.432 30.17728 19.36384 47.54432z" fill="#999999" p-id="5502"></path><path d="M582.656 604.22144v76.92288h54.48704q24.6784 0 36.53632-8.97024 11.54048-9.29792 11.54048-29.80864 0-20.19328-11.85792-29.16352-11.264-8.97024-36.21888-8.97024z m-37.49888-32.0512H640q83.01568 0 83.01568 70.1952 0 70.84032-83.6608 70.84032H582.656v87.82848h-37.5296z m-82.37056 0h37.49888v228.85376H462.7456z m-209.62304 0h171.43808v29.80864l-132.096 166.99392h139.78624v32.0512H243.5072v-29.4912l132.37248-167.31136H253.12256z m-138.14784-4.48512q44.2368 0 69.55008 19.54816 24.6784 19.23072 30.72 57.344h-37.80608q-4.8128-21.80096-20.48-33.01376-15.70816-10.89536-41.984-10.89536-32.36864 0-50.96448 21.79072-20.48 22.75328-20.48 65.06496 0 40.38656 18.26816 62.17728 19.87584 23.08096 61.5424 23.08096a119.00928 119.00928 0 0 0 30.72-3.85024 100.0448 100.0448 0 0 0 24.6784-10.57792v-47.104h-60.60032v-32.0512h98.08896v96.79872q-17.6128 14.1312-41.6768 21.82144-25.00608 7.69024-55.4496 7.69024-54.48704 0-84.9408-34.62144-28.20096-32.04096-28.20096-83.33312 0-51.6096 28.2112-84.62336 29.48096-35.24608 80.76288-35.24608z" fill="#999999" p-id="5503"></path></svg>