<?xml version="1.0" standalone="no"?><!DOCTYPE svg PUBLIC "-//W3C//DTD SVG 1.1//EN" "http://www.w3.org/Graphics/SVG/1.1/DTD/svg11.dtd"><svg t="1746518016582" class="icon" viewBox="0 0 1024 1024" version="1.1" xmlns="http://www.w3.org/2000/svg" p-id="6185" xmlns:xlink="http://www.w3.org/1999/xlink" width="200" height="200"><path d="M139.636364 539.927273m-18.618182 0a18.618182 18.618182 0 1 0 37.236363 0 18.618182 18.618182 0 1 0-37.236363 0Z" fill="" p-id="6186"></path><path d="M139.636364 651.636364m-18.618182 0a18.618182 18.618182 0 1 0 37.236363 0 18.618182 18.618182 0 1 0-37.236363 0Z" fill="" p-id="6187"></path><path d="M195.490909 595.781818m-18.618182 0a18.618182 18.618182 0 1 0 37.236364 0 18.618182 18.618182 0 1 0-37.236364 0Z" fill="" p-id="6188"></path><path d="M307.2 595.781818m-18.618182 0a18.618182 18.618182 0 1 0 37.236364 0 18.618182 18.618182 0 1 0-37.236364 0Z" fill="" p-id="6189"></path><path d="M251.345455 651.636364m-18.618182 0a18.618182 18.618182 0 1 0 37.236363 0 18.618182 18.618182 0 1 0-37.236363 0Z" fill="" p-id="6190"></path><path d="M363.054545 651.636364m-18.618181 0a18.618182 18.618182 0 1 0 37.236363 0 18.618182 18.618182 0 1 0-37.236363 0Z" fill="" p-id="6191"></path><path d="M418.909091 595.781818m-18.618182 0a18.618182 18.618182 0 1 0 37.236364 0 18.618182 18.618182 0 1 0-37.236364 0Z" fill="" p-id="6192"></path><path d="M530.618182 595.781818m-18.618182 0a18.618182 18.618182 0 1 0 37.236364 0 18.618182 18.618182 0 1 0-37.236364 0Z" fill="" p-id="6193"></path><path d="M474.763636 651.636364m-18.618181 0a18.618182 18.618182 0 1 0 37.236363 0 18.618182 18.618182 0 1 0-37.236363 0Z" fill="" p-id="6194"></path><path d="M586.472727 651.636364m-18.618182 0a18.618182 18.618182 0 1 0 37.236364 0 18.618182 18.618182 0 1 0-37.236364 0Z" fill="" p-id="6195"></path><path d="M642.327273 595.781818m-18.618182 0a18.618182 18.618182 0 1 0 37.236364 0 18.618182 18.618182 0 1 0-37.236364 0Z" fill="" p-id="6196"></path><path d="M754.036364 595.781818m-18.618182 0a18.618182 18.618182 0 1 0 37.236363 0 18.618182 18.618182 0 1 0-37.236363 0Z" fill="" p-id="6197"></path><path d="M698.181818 651.636364m-18.618182 0a18.618182 18.618182 0 1 0 37.236364 0 18.618182 18.618182 0 1 0-37.236364 0Z" fill="" p-id="6198"></path><path d="M809.890909 651.636364m-18.618182 0a18.618182 18.618182 0 1 0 37.236364 0 18.618182 18.618182 0 1 0-37.236364 0Z" fill="" p-id="6199"></path><path d="M865.745455 595.781818m-18.618182 0a18.618182 18.618182 0 1 0 37.236363 0 18.618182 18.618182 0 1 0-37.236363 0Z" fill="" p-id="6200"></path><path d="M921.6 539.927273m-18.618182 0a18.618182 18.618182 0 1 0 37.236364 0 18.618182 18.618182 0 1 0-37.236364 0Z" fill="" p-id="6201"></path><path d="M307.2 707.490909m-18.618182 0a18.618182 18.618182 0 1 0 37.236364 0 18.618182 18.618182 0 1 0-37.236364 0Z" fill="" p-id="6202"></path><path d="M418.909091 707.490909m-18.618182 0a18.618182 18.618182 0 1 0 37.236364 0 18.618182 18.618182 0 1 0-37.236364 0Z" fill="" p-id="6203"></path><path d="M530.618182 707.490909m-18.618182 0a18.618182 18.618182 0 1 0 37.236364 0 18.618182 18.618182 0 1 0-37.236364 0Z" fill="" p-id="6204"></path><path d="M642.327273 707.490909m-18.618182 0a18.618182 18.618182 0 1 0 37.236364 0 18.618182 18.618182 0 1 0-37.236364 0Z" fill="" p-id="6205"></path><path d="M754.036364 707.490909m-18.618182 0a18.618182 18.618182 0 1 0 37.236363 0 18.618182 18.618182 0 1 0-37.236363 0Z" fill="" p-id="6206"></path><path d="M976.151273 161.084509a14.373236 14.373236 0 0 0-0.539928-1.340509c-0.186182-0.390982-0.279273-0.8192-0.484072-1.191564C952.431709 67.751564 756.028509 0 512 0S71.568291 67.751564 48.872727 158.552436c-0.2048 0.372364-0.297891 0.800582-0.484072 1.191564a16.7936 16.7936 0 0 0-0.539928 1.340509A18.264436 18.264436 0 0 0 46.545455 167.563636v688.872728a17.501091 17.501091 0 0 0 2.178327 8.3968C70.711855 955.969164 267.431564 1024 512 1024c244.009891 0 440.413091-67.751564 463.127273-158.552436A18.394764 18.394764 0 0 0 977.454545 856.436364V167.563636a18.264436 18.264436 0 0 0-1.303272-6.479127z m-98.639128 532.312436A18.245818 18.245818 0 0 0 865.745455 688.872727a18.618182 18.618182 0 0 0-18.618182 18.618182c0 0.2048 0.111709 0.372364 0.111709 0.577164-37.329455 15.7696-85.029236 29.267782-140.455564 39.042327A18.059636 18.059636 0 0 0 698.181818 744.727273a18.413382 18.413382 0 0 0-13.665745 6.199854 1064.96 1064.96 0 0 1-80.114037 8.973964A18.357527 18.357527 0 0 0 586.472727 744.727273a18.469236 18.469236 0 0 0-18.338909 17.240436c-18.301673 0.8192-36.901236 1.377745-56.133818 1.377746-6.3488 0-12.436945-0.242036-18.692655-0.335128A18.562327 18.562327 0 0 0 474.763636 744.727273a18.469236 18.469236 0 0 0-18.338909 17.277672 1154.048 1154.048 0 0 1-76.166982-5.753018A18.6368 18.6368 0 0 0 363.054545 744.727273a18.283055 18.283055 0 0 0-14.484945 7.410036c-53.471418-7.614836-100.538182-18.674036-139.580509-31.986036A18.432 18.432 0 0 0 214.109091 707.490909a18.618182 18.618182 0 0 0-37.236364 0c0 0.242036 0.130327 0.428218 0.130328 0.670255C117.666909 683.119709 83.781818 652.6976 83.781818 623.709091c0-2.103855 0.242036-4.207709 0.577164-6.292946 0.167564-1.042618-0.167564-2.066618-0.167564-3.109236A18.562327 18.562327 0 0 0 83.781818 577.163636v-74.472727a18.469236 18.469236 0 0 0 18.338909-17.277673c32.172218 22.770036 76.911709 42.356364 131.202328 57.511564 1.489455 8.787782 8.8064 15.620655 18.0224 15.620655 5.957818 0 11.003345-2.978909 14.410472-7.316946C336.933236 567.724218 421.124655 577.163636 512 577.163636c105.639564 0 202.249309-12.753455 279.812655-34.518109 1.377745 8.936727 8.750545 15.899927 18.078254 15.899928a18.618182 18.618182 0 0 0 18.618182-18.618182 18.357527 18.357527 0 0 0-1.973527-8.005818c48.779636-16.737745 87.542691-37.515636 113.682618-61.049019v138.258619a18.562327 18.562327 0 0 0-0.577164 8.28509c0.353745 2.085236 0.577164 4.189091 0.577164 6.292946 0 5.548218-1.675636 11.152291-4.114618 16.756364a18.245818 18.245818 0 0 0-14.503564-7.447273 18.543709 18.543709 0 1 0-7.521745 35.579345c-9.681455 8.527127-21.894982 16.830836-36.56611 24.799418zM940.218182 404.8896c-0.148945 0.577164-0.502691 1.079855-0.595782 1.694255C929.065891 470.984145 754.706618 539.927273 512 539.927273S94.934109 470.984145 84.3776 406.583855c-0.093091-0.6144-0.446836-1.098473-0.595782-1.694255v-157.863564C147.6608 305.915345 293.124655 353.745455 512 353.745455s364.3392-47.830109 428.218182-106.719419v157.863564zM512 37.236364c242.743855 0 417.084509 68.943127 427.6224 133.3248l0.018618 0.111709c0.335127 2.066618 0.577164 4.114618 0.577164 6.199854 0 66.057309-175.848727 139.636364-428.218182 139.636364s-428.218182-73.579055-428.218182-139.636364c0-2.085236 0.242036-4.133236 0.577164-6.199854l0.018618-0.111709C94.915491 106.179491 269.256145 37.236364 512 37.236364z m427.6224 816.183854C929.065891 917.820509 754.706618 986.763636 512 986.763636S94.934109 917.820509 84.3776 853.420218a20.293818 20.293818 0 0 0-0.595782-2.438982v-157.118836C147.6608 752.751709 293.124655 800.581818 512 800.581818s364.3392-47.830109 428.218182-106.719418v157.044364a18.990545 18.990545 0 0 0-0.595782 2.513454z" fill="" p-id="6207"></path></svg>