<?xml version="1.0" standalone="no"?><!DOCTYPE svg PUBLIC "-//W3C//DTD SVG 1.1//EN" "http://www.w3.org/Graphics/SVG/1.1/DTD/svg11.dtd"><svg t="1746366464265" class="icon" viewBox="0 0 1024 1024" version="1.1" xmlns="http://www.w3.org/2000/svg" p-id="10479" xmlns:xlink="http://www.w3.org/1999/xlink" width="200" height="200"><path d="M790.140541 144.836036h-539.675676A89.945946 89.945946 0 0 0 160.518919 234.781982v558.126126a89.945946 89.945946 0 0 0 89.945946 89.945946h539.675676A89.945946 89.945946 0 0 0 880.086486 792.908108v-558.126126a89.945946 89.945946 0 0 0-89.945945-89.945946zM833.96036 786.45045a50.277477 50.277477 0 0 1-50.277477 50.277478h-526.76036A50.277477 50.277477 0 0 1 206.645045 786.45045v-545.21081a50.277477 50.277477 0 0 1 50.277478-50.277478h526.76036A50.277477 50.277477 0 0 1 833.96036 241.23964z" p-id="10480"></path><path d="M538.753153 321.51755V252.771171a18.45045 18.45045 0 0 0-36.900901 0v68.746379a73.801802 73.801802 0 0 0 0 142.95409V769.383784a18.45045 18.45045 0 0 0 36.900901 0V464.47164a73.801802 73.801802 0 0 0 0-142.95409z m0 103.322522A36.900901 36.900901 0 1 1 557.203604 392.994595a36.568793 36.568793 0 0 1-18.450451 31.919279zM357.938739 518.937369V252.771171a18.45045 18.45045 0 0 0-36.900901 0v266.166198a73.801802 73.801802 0 0 0 0 142.95409V769.383784a18.45045 18.45045 0 0 0 36.900901 0v-107.492325a73.801802 73.801802 0 0 0 0-142.95409z m0 103.322523A36.900901 36.900901 0 1 1 376.389189 590.414414a36.568793 36.568793 0 0 1-18.45045 31.91928zM717.722523 592.739171V252.771171a18.45045 18.45045 0 0 0-36.900901 0v339.968a73.801802 73.801802 0 0 0 0 142.95409V769.383784a18.45045 18.45045 0 0 0 36.900901 0v-33.690523a73.801802 73.801802 0 0 0 0-142.95409z m0 103.322523A36.900901 36.900901 0 1 1 736.172973 664.216216a36.568793 36.568793 0 0 1-18.45045 31.919279z" p-id="10481"></path></svg>