<?xml version="1.0" standalone="no"?><!DOCTYPE svg PUBLIC "-//W3C//DTD SVG 1.1//EN" "http://www.w3.org/Graphics/SVG/1.1/DTD/svg11.dtd"><svg t="1746511230737" class="icon" viewBox="0 0 1024 1024" version="1.1" xmlns="http://www.w3.org/2000/svg" p-id="2469" xmlns:xlink="http://www.w3.org/1999/xlink" width="200" height="200"><path d="M529.237333 69.973333a15.189333 15.189333 0 0 1 15.189334 14.293334v226.944h72.96V85.248a15.189333 15.189333 0 0 1 14.250666-15.232H942.805333a15.189333 15.189333 0 0 1 15.146667 14.250667l0.042667 0.981333V946.773333a15.189333 15.189333 0 0 1-14.250667 15.189334H632.576a15.189333 15.189333 0 0 1-15.146667-14.250667l-0.042666-0.938667v-260.48h-72.96v260.48a15.189333 15.189333 0 0 1-14.250667 15.189334H81.237333a15.189333 15.189333 0 0 1-15.189333-14.250667l-0.042667-0.938667V85.248a15.189333 15.189333 0 0 1 14.250667-15.232h448.981333z m-49.706666 64.938667H130.986667v762.154667h348.586666V376.149333H372.138667v66.133334l-98.56-98.56 98.56-98.56v66.048h107.392V134.912z m413.525333 0h-210.773333v486.485333h38.485333v-66.133333l98.56 98.56-98.56 98.56v-66.090667h-38.442667v210.773334h210.773334V134.912zM617.386667 376.149333h-72.96v245.248h72.96V376.149333z" fill="#333333" p-id="2470"></path></svg>